<svg width="100" height="100" fill="none" xmlns="http://www.w3.org/2000/svg"><circle opacity=".05" cx="50" cy="50" r="50" fill="#fff"/><path d="M9.889 88.686c-.018.018.02-.017 0 0z" fill="#fff"/><path d="M89.94 34.072a1.87 1.87 0 00-.915-1.171 25.438 25.438 0 00-3.357-1.495c3.338-4.543 4.036-10.392 4.175-12.236a1.864 1.864 0 00-1.931-2.014c-.266.008-.613-.019-1.015-.052-.904-.074-2.054-.168-3.461.044 2.23-3.986 2.856-8.721 3.016-11.627a1.878 1.878 0 00-.543-1.43 1.876 1.876 0 00-1.43-.543c-2.906.16-7.64.785-11.626 3.017.211-1.408.117-2.558.043-3.462a9.759 9.759 0 01-.052-1.015A1.876 1.876 0 0072.272.67 1.876 1.876 0 0070.83.157c-1.843.14-7.692.838-12.235 4.175A25.418 25.418 0 0057.099.975 1.866 1.866 0 0055.93.06a1.933 1.933 0 00-1.52.247c-1.896 1.212-7.558 5.22-9.665 11.015a24.997 24.997 0 00-3.97-4.24 1.867 1.867 0 00-1.397-.426 1.97 1.97 0 00-1.334.731 30.147 30.147 0 00-3.307 5.197c-1.034 2.08-1.703 4.092-2.002 6.012A24.96 24.96 0 0029.72 16.7c-.934-.493-2.103-.122-2.607.827a29.345 29.345 0 00-2.336 5.915c-.66 2.447-.892 4.72-.694 6.791a24.29 24.29 0 00-1.582-.443c-1.014-.244-2.061.386-2.333 1.405-.433 1.627-1.264 5.456-.776 9.452a23.111 23.111 0 00-1.065-.193c-1.033-.16-2.022.558-2.205 1.601-.446 2.546-1.516 11.252 3.445 16.395a10.413 10.413 0 001.861 1.543L1.31 80.112a4.48 4.48 0 000 6.33l2.248 2.247A4.445 4.445 0 006.721 90h.003c1.196 0 2.32-.467 3.165-1.314l20.1-20.14c.42.657.938 1.289 1.561 1.889 3.245 3.13 7.908 3.86 11.547 3.86 2.129 0 3.908-.25 4.848-.415 1.043-.183 1.762-1.172 1.6-2.206a23.205 23.205 0 00-.192-1.064c3.995.488 7.825-.343 9.452-.777 1.019-.272 1.649-1.318 1.404-2.332a24.247 24.247 0 00-.442-1.583c2.07.199 4.344-.033 6.79-.694a29.369 29.369 0 005.916-2.336c.95-.504 1.32-1.673.827-2.606a24.964 24.964 0 00-1.896-3.015c1.92-.3 3.932-.969 6.012-2.003a30.151 30.151 0 005.196-3.306c.413-.329.68-.815.732-1.335a1.865 1.865 0 00-.425-1.396 24.997 24.997 0 00-4.24-3.97c5.794-2.108 9.802-7.77 11.014-9.665.29-.454.38-1.008.247-1.52zm-71.304 9.144c.565.109 1.271.269 2.066.5a1.333 1.333 0 001.664-1.607c-.921-3.656-.224-7.678.208-9.543.696.195 1.66.502 2.73.95a1.334 1.334 0 001.795-1.6c-.634-2.197-.55-4.814.251-7.778a26.626 26.626 0 011.786-4.71c.94.546 2.423 1.503 3.853 2.82a1.333 1.333 0 002.236-1.024c-.16-4.79 2.927-9.543 4.438-11.57 1.19 1.082 3.147 3.107 4.463 5.729.149.296.398.513.688.632-1.196 1.648-2.617 3.956-3.554 6.633a22.51 22.51 0 00-.768-1.01 1.874 1.874 0 00-1.303-.685 1.96 1.96 0 00-1.451.495c-1.749 1.565-7.037 6.775-7.856 13.111-.496-.28-.926-.503-1.267-.67a1.877 1.877 0 00-1.529-.062c-.491.197-.877.6-1.06 1.103-.62 1.713-2.495 7.647-1.1 13.317-.553 1.952-.81 4.072-.505 6.263.043.309.096.615.158.913a9.544 9.544 0 00-.816 2.235l-.387.386c-.65-.332-1.285-.815-1.892-1.445-3.73-3.868-3.257-10.55-2.848-13.383zm12.23-5.012a1.91 1.91 0 00-.307.27 28.396 28.396 0 00-3.467 4.759c.083-2.696.705-5.12 1.151-6.534.577.315 1.324.752 2.142 1.305.148.1.312.166.481.2zM8.001 86.802c-.341.342-.795.53-1.279.531-.484 0-.938-.188-1.28-.53l-2.248-2.248a1.797 1.797 0 01-.53-1.279c0-.483.189-.937.53-1.278l1.462-1.462 4.805 4.804L8 86.802zm3.344-3.35L6.542 78.65l2.181-2.181 4.8 4.8-2.178 2.183zm4.062-4.07l-4.798-4.799 3.36-3.36 4.795 4.796-3.357 3.363zm5.24-5.25l-4.793-4.794 2.181-2.181 4.792 4.791-2.18 2.183zm4.064-4.072l-4.79-4.789 3.902-3.902c.03.108.06.212.092.312.52 1.618 1.433 2.556 1.527 2.65h.001c.1.102 1.004.982 2.562 1.507.213.072.446.138.695.195l.024.006-4.013 4.022zm3.463-7.038l-.06-.032-.056-.03a4.098 4.098 0 01-.075-.043l-.029-.017a3.758 3.758 0 01-.603-.434l-.002-.002-.011-.01a.109.109 0 01-.005-.005c-.08-.084-.722-.795-.988-1.988l-.002-.008a4.738 4.738 0 01-.06-.331c-.002-.006-.002-.013-.003-.019a4.842 4.842 0 01-.04-.423c-.003-.051-.004-.104-.005-.156a5.048 5.048 0 01.004-.334l.005-.106a4.69 4.69 0 01.02-.228l.014-.106c.095-.735.353-1.565.872-2.478.17-.3.218-.652.134-.985-.092-.364-.166-.75-.221-1.145-.259-1.86-.022-3.681.478-5.368.033-.081.058-.165.075-.252 1.042-3.32 3.08-6.093 4.317-7.567.433.534.985 1.262 1.558 2.138a1.332 1.332 0 002.405-.39c.372-1.409 2.059-6.177 8.432-10.166.3.763.674 1.827.994 3.08a1.334 1.334 0 002.464.306c.225-.415.492-.832.795-1.239 3.4-4.574 9.792-5.706 12.721-5.985-.279 2.93-1.411 9.322-5.986 12.721-.439.327-.883.61-1.32.84a1.333 1.333 0 00.304 2.473c1.328.329 2.457.724 3.261 1.04-.405.635-.98 1.473-1.71 2.378a24.14 24.14 0 01-1.624 1.819 19.203 19.203 0 01-2.644 2.244c-1.362.95-2.769 1.62-4.183 1.993a1.333 1.333 0 00-.39 2.405 26.472 26.472 0 012.138 1.558c-1.458 1.225-4.187 3.23-7.46 4.283a1.34 1.34 0 00-.233.073c-1.722.525-3.588.78-5.494.515a10.112 10.112 0 01-1.66-.367 1.336 1.336 0 00-1.026.092c-2.346 1.24-4.124.762-5.101.256zm23.454-3.479c.08-.072.15-.152.215-.236.038.108.088.212.153.308.553.818.99 1.565 1.305 2.142-1.36.429-3.66 1.024-6.239 1.141a28.446 28.446 0 004.566-3.355zm24.708-16.38a1.864 1.864 0 00-.318-2.312 27.031 27.031 0 00-3.602-2.83c4.826-2.772 7.827-7.719 8.719-9.347a1.88 1.88 0 00.128-1.527 1.875 1.875 0 00-1.054-1.105 28.044 28.044 0 00-4.731-1.46c2.757-4.462 3.267-9.765 3.36-11.447a1.877 1.877 0 00-.543-1.43 1.878 1.878 0 00-1.43-.542c-1.682.092-6.985.602-11.447 3.36a28.025 28.025 0 00-1.46-4.732 1.875 1.875 0 00-1.105-1.054 1.88 1.88 0 00-1.526.128 28.135 28.135 0 00-3.29 2.13 1.334 1.334 0 001.598 2.135 26.607 26.607 0 012.186-1.473c.432 1.186 1.034 3.126 1.32 5.351a1.334 1.334 0 002.17.859c3.54-2.922 8.431-3.743 10.793-3.972-.228 2.363-1.05 7.254-3.971 10.793a1.333 1.333 0 00.859 2.172c2.225.285 4.165.887 5.351 1.319-1.338 2.222-4.541 6.753-9.238 8.457a1.333 1.333 0 00-.156 2.439c2.001 1.032 3.61 2.285 4.568 3.111-1.726 1.384-5.471 4.023-9.694 4.725a1.333 1.333 0 00-.42 2.485 23.044 23.044 0 012.62 1.673c-.642.67-1.6 1.6-2.791 2.549a1.333 1.333 0 101.66 2.086 30.795 30.795 0 003.661-3.442c.356-.398.537-.928.494-1.452a1.875 1.875 0 00-.685-1.303 22.31 22.31 0 00-1.01-.768c2.677-.937 4.985-2.358 6.633-3.554.12.29.337.54.633.688 2.622 1.316 4.647 3.273 5.73 4.463-2.029 1.512-6.778 4.605-11.571 4.438a1.334 1.334 0 00-1.025 2.236 22.515 22.515 0 012.82 3.854 26.619 26.619 0 01-4.71 1.786c-2.964.8-5.58.884-7.777.25a1.333 1.333 0 00-1.6 1.795c.447 1.07.754 2.035.949 2.73-1.865.432-5.888 1.13-9.543.209a1.332 1.332 0 00-1.606 1.664c.23.794.39 1.5.5 2.066-2.833.408-9.515.882-13.384-2.85-.64-.617-1.128-1.261-1.46-1.923l.7-.702a9.586 9.586 0 001.385-.521c.498.132 1.023.237 1.567.312 2.246.312 4.418.035 6.41-.548a18.58 18.58 0 004.145.447c4.08 0 7.666-1.151 8.922-1.606a1.877 1.877 0 001.104-1.06 1.877 1.877 0 00-.062-1.528c-.168-.342-.39-.772-.67-1.268a15.3 15.3 0 003.722-.991 1.333 1.333 0 10-.99-2.476c-1.653.661-3.264.964-4.782.898a7.044 7.044 0 01-.208-.012 1.328 1.328 0 00-.965.334 1.882 1.882 0 00-.614-1.117 25.15 25.15 0 00-1.048-.872 17.272 17.272 0 002.55-1.48 21.882 21.882 0 003.014-2.556 26.782 26.782 0 001.804-2.02 28.507 28.507 0 002.415-3.488 1.88 1.88 0 00.166-1.523 1.875 1.875 0 00-1.026-1.131 26.452 26.452 0 00-1.824-.723c5.392-4.63 6.244-12.604 6.378-15.021a1.878 1.878 0 00-.543-1.43 1.875 1.875 0 00-1.43-.543c-2.41.132-10.34.98-14.976 6.324-.262-.723-.5-1.294-.666-1.668a1.875 1.875 0 00-1.132-1.027 1.88 1.88 0 00-1.523.167c-1.742 1.012-7.032 4.425-9.543 9.783-.359-.455-.662-.81-.872-1.05a1.878 1.878 0 00-1.3-.633c.282-.268.438-.648.414-1.046a9.706 9.706 0 01-.012-.207c-.238-5.541 4.332-10.583 6.479-12.633.467.631 1.077 1.53 1.673 2.62a1.333 1.333 0 002.486-.42c.702-4.223 3.34-7.968 4.725-9.694.826.957 2.079 2.566 3.11 4.568a1.333 1.333 0 002.438-.156c.457-1.256 1.153-2.5 2.072-3.696a1.333 1.333 0 10-2.116-1.623c-.503.655-.95 1.325-1.34 2.006a27.05 27.05 0 00-2.83-3.6 1.881 1.881 0 00-1.39-.585 1.88 1.88 0 00-.92.266c1.106-5.145 5.977-9.042 8.31-10.647.456.938 1.044 2.32 1.493 3.967a1.333 1.333 0 002.214.608c3.536-3.423 8.876-4.415 11.35-4.696.01.139.02.28.033.425.128 1.563.287 3.508-1.255 6.362a1.333 1.333 0 002.151 1.54c3.404-3.676 9.406-4.677 12.592-4.948-.271 3.186-1.272 9.187-4.948 12.591a1.333 1.333 0 001.54 2.152c2.853-1.542 4.798-1.383 6.362-1.255.144.012.285.024.425.034-.282 2.473-1.273 7.813-4.696 11.35a1.333 1.333 0 00.608 2.213 23.102 23.102 0 013.967 1.493c-1.606 2.334-5.502 7.206-10.648 8.312z" fill="#fff"/></svg>