<svg width="20" height="20" fill="none" xmlns="http://www.w3.org/2000/svg"><path fill-rule="evenodd" clip-rule="evenodd" d="M6.438 0a.91.91 0 01.91.91v.454h5.454V.909a.91.91 0 011.818 0v.503c1.344.15 2.436.644 3.223 1.492.947 1.02 1.323 2.411 1.323 3.914v7.728c0 1.503-.376 2.894-1.323 3.913C16.885 19.491 15.475 20 13.711 20H6.438c-1.764 0-3.174-.509-4.132-1.54C1.36 17.44.984 16.047.984 14.544V6.819c0-1.503.375-2.894 1.322-3.914.788-.848 1.88-1.342 3.223-1.492V.91A.91.91 0 016.44 0zM5.53 3.245c-.894.133-1.493.468-1.89.896-.475.512-.77 1.272-.827 2.304h14.525c-.056-1.032-.351-1.792-.826-2.304-.398-.428-.996-.763-1.89-.896v.391a.91.91 0 11-1.82 0v-.454H7.348v.454a.91.91 0 11-1.818 0v-.391zm11.818 5.019H2.802v6.282c0 1.224.306 2.105.837 2.676.519.56 1.382.96 2.8.96h7.272c1.418 0 2.28-.4 2.8-.96.53-.57.836-1.452.836-2.677v-6.28zm-11.55 3.282a.91.91 0 01.909-.91h.008a.91.91 0 110 1.819h-.008a.91.91 0 01-.91-.91zm3.364 0a.91.91 0 01.91-.91h.008a.91.91 0 010 1.819h-.008a.91.91 0 01-.91-.91zm3.363 0a.91.91 0 01.91-.91h.008a.91.91 0 110 1.819h-.008a.91.91 0 01-.91-.91zm-6.727 2.727a.91.91 0 01.909-.91h.008a.91.91 0 010 1.819h-.008a.91.91 0 01-.91-.91zm3.364 0a.91.91 0 01.91-.91h.008a.91.91 0 010 1.819h-.008a.91.91 0 01-.91-.91zm3.363 0a.91.91 0 01.91-.91h.008a.91.91 0 010 1.819h-.008a.91.91 0 01-.91-.91z" fill="#000"/></svg>