<svg width="1920" height="360" fill="none" xmlns="http://www.w3.org/2000/svg"><mask id="a" style="mask-type:alpha" maskUnits="userSpaceOnUse" x="0" y="0" width="1920" height="360"><path fill="#151515" d="M0 0h1920v360H0z"/></mask><g mask="url(#a)" fill="#fff" fill-opacity=".05"><path d="M-6.125 163.299v-1.034h24.72v1.053c0 21.854 5.024 39.369 13.161 45.777 2.471 1.948 4.002 1.847 5.25 1.602 17.309-3.425 46.252-54.827 69.51-96.132C149.975 37.373 199.24-50.112 258.79-29.759c29.933 10.23 41.978 40.731 35.827 90.651-4.873 39.495-20.233 87.844-33.778 130.505-10.463 32.954-20.353 64.073-24.052 86.438-4.828 29.201 2.067 51.932 17.585 57.905 26.063 10.034 63.112-25.071 88.274-64.313 24.247-37.817 45.696-81.336 64.618-119.726 39.52-80.188 70.739-143.523 113.694-132.038 10.771 2.882 19.003 9.252 24.474 18.946 19.18 34.008-1.273 104.609-24.954 186.36a6593.994 6593.994 0 00-8.868 30.81c-14.61 51.478-9.253 77.249-4.563 79.324.296.132 31.256 11.012 149.255-179.36 28.54-46.041 59.859-69.503 93.089-69.73 61.076-.423 109.37 75.148 144.635 130.328 4.519 7.07 8.786 13.743 12.682 19.615 18.858 28.388 38.379 42.528 58.019 42.024 35.503-.908 63.733-47.814 64.013-48.287l21.26 12.583c-1.42 2.415-35.37 59.103-84.567 60.434-28.736.775-55.423-17.073-79.33-53.055-4.021-6.055-8.345-12.822-12.927-19.987-30.343-47.486-76.204-119.247-123.64-118.925-24.178.17-48.489 19.69-72.258 58.037-117.141 188.996-158.974 198.35-180.247 188.952-32.145-14.21-17.163-80.755-9.227-108.708 2.937-10.35 5.937-20.693 8.899-30.942 20.277-69.995 41.241-142.368 27.173-167.319-2.168-3.841-5.043-6.067-9.322-7.209-23.372-6.25-54.78 57.463-85.148 119.083-19.211 38.977-40.988 83.158-65.986 122.142-19.312 30.128-39.715 51.919-60.641 64.779-14.295 8.786-35.845 17.527-57.307 9.265-27.355-10.526-40.037-43.108-33.091-85.031 3.99-24.118 14.138-56.063 24.885-89.888 13.223-41.632 28.212-88.822 32.807-126.046 6.813-55.293-12.833-62.01-19.287-64.218-40.113-13.711-85.929 67.668-122.751 133.06-35.827 63.625-59.154 102.892-86.25 108.253-8.982 1.779-17.744-.447-25.339-6.433C-3.13 213.087-6.13 181.293-6.13 163.293"/><path d="M293.986 279.367c13.218-1.955 33.45-17.571 83.105-117.102h-27.689c-29.063 57.015-45.344 79.065-53.336 87.548 1.841-15.793 13.129-48.514 21.802-73.635 19.168-55.558 43.031-124.702 43.031-184.487 0-56.675-27.544-100.754-71.892-115.021-24.222-7.795-50.89-5.802-77.124 5.759-19.243 8.482-37.818 22.112-54.779 40.024l13.52 21.829c34.364-38.688 75.472-55.446 110.813-44.074 33.765 10.867 54.742 45.922 54.742 91.477 0 55.634-23.107 122.602-41.676 176.414-20.069 58.157-31.118 90.19-16.722 105.592 4.204 4.497 10.11 6.566 16.205 5.664"/><path d="M318.429 404.278c26.46-19.356 53.96-49.422 81.832-89.434l-14.226-22.97c-42.86 63.689-106.174 134.346-164.458 109.421-24.991-10.691-36.431-35.074-35.946-76.795.429-38.756 11.34-83.896 20.958-123.718 13.539-56.038 21.714-89.863 3.586-103.353-6.315-4.7-13.45-6.301-20.642-4.623-19.899 4.648-34.61 33.433-54.975 73.275-26.063 50.998-58.498 114.472-100.079 114.472-25.729 0-41.278-13.346-50.411-43.279-8.623-28.261-9.348-65.914-9.348-102.06V4.084H-50v131.13c0 38.013.807 77.766 10.425 109.288 12.31 40.334 37.226 60.781 74.054 60.781 56.696 0 92.951-70.941 122.083-127.944 8.673-16.966 16.86-32.999 24.33-44.528 8.609-13.289 13.034-15.509 14.043-15.862.006 0 .019.013.025.019.555 1.28 2.067 6.723-.675 24.263-2.3 14.714-6.882 33.673-11.729 53.742-9.909 41.008-21.626 89.503-21.626 132.019 0 43.354 12.196 80.484 50.928 97.046 33.312 14.247 69.163 7.6 106.565-19.76"/><path d="M277.044 479.849c32.353-6.528 63.881-22.97 91.551-47.675l-13.243-21.387c-49.541 46.054-113.529 60.163-159.598 35.054-44.159-24.067-62.992-77.564-52.334-147.527h-24.997c-1.778 12.683-2.673 24.906-2.673 36.625 0 23.764 3.656 45.492 10.955 64.943 11.257 30.002 31.042 53.408 57.225 67.681 27.216 14.834 59.412 19.085 93.114 12.286zm335.704-303.86c36.835-60.327 71.634-117.31 116.057-127.982 7.64-1.835 15.531-2.283 23.725-1.369l14.074-22.737c-15.001-3.355-29.454-3.33-43.572.057-54.401 13.062-91.797 74.303-131.386 139.133-12.058 19.747-24.475 40.075-37.617 59.469l14.214 22.951c15.845-22.604 30.412-46.451 44.499-69.522"/><path d="M501.298 423.256c59.331-6.225 129.388-90.298 208.201-191.254 21.815-27.947 40.056-41.589 54.206-40.561 19.224 1.4 36.463 31.693 53.134 60.989 12.247 21.52 24.885 43.689 40.604 59.974l13.526-21.848c-11.824-13.775-22.381-32.317-32.655-50.368-20.794-36.536-40.434-71.055-72.819-73.414-23.529-1.715-47.512 14.172-75.485 50.002-54.785 70.185-137.582 176.244-191.296 181.882-10.293 1.079-19.167-1.646-27.128-8.344-51.722-43.474-1.21-192.717 27.166-257.616l-15.846-25.588c-5.861 13.15-30.273 69.491-44.802 125.674-9.057 35.029-13.576 65.504-13.576 91.344 0 39.173 10.4 67.675 31.162 85.126 13.186 11.082 28.527 15.793 45.602 14.002M1925.12 191.701v1.034h-24.72v-1.053c0-21.854-5.02-39.369-13.16-45.777-2.47-1.948-4-1.847-5.25-1.602-17.3 3.425-46.25 54.827-69.51 96.132-43.46 77.192-92.72 164.677-152.27 144.324-29.93-10.23-41.98-40.731-35.83-90.651 4.88-39.495 20.24-87.844 33.78-130.505 10.46-32.954 20.35-64.073 24.05-86.438 4.83-29.201-2.06-51.932-17.58-57.905-26.06-10.034-63.11 25.07-88.28 64.313-24.24 37.817-45.69 81.336-64.61 119.726-39.52 80.188-70.74 143.523-113.7 132.038-10.77-2.882-19-9.252-24.47-18.946-19.18-34.008 1.27-104.609 24.95-186.36a6032.6 6032.6 0 008.87-30.81c14.61-51.478 9.25-77.249 4.56-79.324-.29-.132-31.25-11.012-149.25 179.36-28.54 46.041-59.86 69.503-93.09 69.73-61.08.423-109.37-75.148-144.64-130.328-4.52-7.07-8.78-13.743-12.68-19.615-18.856-28.388-38.377-42.528-58.017-42.024-35.504.908-63.729 47.814-64.013 48.287L869 112.724c1.418-2.415 35.372-59.103 84.567-60.434 28.736-.775 55.423 17.074 79.333 53.055 4.02 6.055 8.34 12.822 12.92 19.987 30.35 47.486 76.21 119.247 123.64 118.925 24.18-.17 48.49-19.69 72.26-58.037C1358.86-2.776 1400.7-12.13 1421.97-2.732c32.14 14.21 17.16 80.755 9.23 108.708-2.94 10.35-5.94 20.693-8.9 30.942-20.28 69.995-41.24 142.368-27.18 167.319 2.17 3.841 5.05 6.067 9.33 7.209 23.37 6.25 54.78-57.463 85.14-119.083 19.22-38.977 40.99-83.158 65.99-122.142 19.31-30.128 39.72-51.92 60.64-64.78 14.3-8.785 35.85-17.526 57.31-9.264 27.35 10.526 40.03 43.108 33.09 85.031-3.99 24.118-14.14 56.063-24.89 89.888-13.22 41.632-28.21 88.822-32.8 126.046-6.82 55.293 12.83 62.01 19.28 64.218 40.12 13.711 85.93-67.668 122.76-133.06 35.82-63.625 59.15-102.892 86.25-108.253 8.98-1.779 17.74.447 25.33 6.433 19.58 15.433 22.58 47.227 22.58 65.227"/><path d="M1625.01 75.633c-13.21 1.955-33.45 17.571-83.1 117.102h27.69c29.06-57.015 45.34-79.065 53.33-87.548-1.84 15.793-13.13 48.514-21.8 73.635-19.17 55.558-43.03 124.702-43.03 184.487 0 56.675 27.55 100.754 71.89 115.021 24.23 7.795 50.89 5.802 77.13-5.759 19.24-8.482 37.81-22.112 54.78-40.024l-13.52-21.829c-34.37 38.688-75.48 55.446-110.82 44.074-33.76-10.867-54.74-45.922-54.74-91.477 0-55.634 23.11-122.602 41.68-176.414 20.07-58.157 31.11-90.19 16.72-105.592-4.21-4.497-10.11-6.566-16.21-5.664"/><path d="M1600.57-49.278c-26.46 19.356-53.96 49.422-81.83 89.434l14.22 22.97c42.87-63.689 106.18-134.346 164.46-109.42 24.99 10.69 36.43 35.073 35.95 76.793-.43 38.757-11.34 83.897-20.96 123.719-13.54 56.038-21.71 89.863-3.59 103.353 6.32 4.699 13.46 6.301 20.65 4.623 19.9-4.648 34.61-33.433 54.97-73.275 26.06-50.998 58.5-114.472 100.08-114.472 25.73 0 41.28 13.346 50.41 43.279 8.62 28.261 9.35 65.914 9.35 102.06v131.129H1969V219.786c0-38.013-.81-77.766-10.43-109.288-12.3-40.334-37.22-60.78-74.05-60.78-56.69 0-92.95 70.94-122.08 127.943-8.67 16.966-16.86 32.999-24.33 44.528-8.61 13.289-13.04 15.509-14.04 15.862-.01 0-.02-.013-.03-.019-.55-1.28-2.07-6.723.67-24.263 2.31-14.714 6.89-33.673 11.73-53.742 9.91-41.008 21.63-89.503 21.63-132.019 0-43.354-12.2-80.484-50.93-97.046-33.31-14.248-69.16-7.6-106.56 19.76"/><path d="M1641.96-124.849c-32.36 6.528-63.88 22.97-91.56 47.675l13.25 21.387c49.54-46.054 113.53-60.163 159.6-35.054 44.15 24.067 62.99 77.563 52.33 147.527h25c1.77-12.683 2.67-24.906 2.67-36.625 0-23.764-3.66-45.492-10.95-64.943-11.26-30.003-31.05-53.408-57.23-67.681-27.22-14.834-59.41-19.085-93.11-12.286zm-335.71 303.86c-36.83 60.327-71.63 117.311-116.06 127.982-7.63 1.836-15.53 2.283-23.72 1.369l-14.07 22.737c15 3.355 29.45 3.33 43.57-.057 54.4-13.062 91.8-74.303 131.38-139.133 12.06-19.747 24.48-40.075 37.62-59.469l-14.21-22.951c-15.85 22.604-30.41 46.451-44.5 69.522"/><path d="M1417.7-68.256c-59.33 6.225-129.39 90.298-208.2 191.254-21.81 27.947-40.05 41.589-54.21 40.561-19.22-1.4-36.46-31.693-53.13-60.989-12.25-21.52-24.88-43.689-40.6-59.974l-13.53 21.848c11.82 13.775 22.38 32.317 32.66 50.368 20.79 36.536 40.43 71.055 72.81 73.414 23.53 1.715 47.52-14.172 75.49-50.002 54.79-70.185 137.58-176.244 191.3-181.882 10.29-1.079 19.16 1.646 27.12 8.344 51.73 43.474 1.21 192.717-27.16 257.616l15.84 25.588c5.87-13.15 30.28-69.491 44.81-125.674 9.05-35.029 13.57-65.504 13.57-91.344 0-39.173-10.4-67.675-31.16-85.126-13.19-11.082-28.53-15.793-45.6-14.002"/></g></svg>