<svg width="320" height="240" fill="none" xmlns="http://www.w3.org/2000/svg"><path fill="#151515" d="M0 .001h320v240H0z"/><path fill="url(#paint0_radial_4_63)" fill-opacity=".2" d="M0 .001h320v240H0z"/><mask id="a" style="mask-type:alpha" maskUnits="userSpaceOnUse" x="0" y="0" width="321" height="241"><path fill="#151515" d="M0 .001h320v240H0z"/><path fill="url(#paint1_radial_4_63)" fill-opacity=".2" d="M0 .001h320v240H0z"/></mask><g mask="url(#a)"><path d="M251.887 103.32c-46.952 75.12-59.341 70.786-59.464 70.737-1.928-.859-4.113-11.405 1.866-32.459 1.204-4.223 2.419-8.434 3.635-12.608 9.699-33.454 18.073-62.34 10.215-76.262-2.234-3.965-5.611-6.568-10.019-7.746-17.595-4.702-30.376 21.214-46.559 54.017-2.505 5.094-5.12 10.398-7.846 15.763H132.96c-11.898 23.337-18.565 32.36-21.843 35.822.761-6.457 5.377-19.851 8.926-30.126 7.846-22.736 17.619-51.021 17.619-75.488 0-23.19-11.284-41.225-29.431-47.056C98.311-5.278 87.383-4.468 76.639.27c-7.87 3.462-15.482 9.048-22.42 16.377l5.526 8.925c14.07-15.825 30.904-22.687 45.38-18.034 13.825 4.456 22.42 18.795 22.42 37.43 0 22.774-9.467 50.175-17.067 72.186-8.214 23.792-12.745 36.904-6.851 43.214 1.719 1.841 4.138 2.676 6.642 2.308 1.867-.27 4.077-1.216 6.999-4.002-9.258 11.048-20.112 18.795-28.314 15.64-6.347-2.443-9.171-11.749-7.195-23.694 1.51-9.158 5.562-21.889 9.847-35.368 5.55-17.458 11.837-37.247 13.826-53.403 2.529-20.428-2.407-32.901-14.66-37.087-24.385-8.336-44.558 27.462-62.362 59.05-9.515 16.892-21.376 37.934-28.46 39.333-.516.099-1.142.135-2.15-.663-3.327-2.614-5.39-9.784-5.39-18.721v-.43h-10.117v.418c0 7.365 1.228 20.378 9.246 26.689 3.106 2.455 6.692 3.363 10.375 2.639 11.087-2.197 20.652-18.267 35.312-44.306 15.078-26.75 33.839-60.044 50.267-54.434 2.64.896 10.695 3.646 7.895 26.272-1.878 15.235-8.017 34.534-13.432 51.573-4.396 13.836-8.546 26.91-10.191 36.781-2.836 17.15 2.357 30.482 13.555 34.791 8.791 3.376 17.607-.196 23.464-3.793 8.57-5.254 16.931-14.179 24.839-26.505 10.227-15.947 19.154-34.03 27.012-49.978 12.438-25.216 25.305-51.278 34.87-48.725 1.756.467 2.934 1.375 3.818 2.946 5.771 10.215-2.824 39.825-11.124 68.466-1.215 4.199-2.443 8.422-3.646 12.657-3.242 11.442-9.381 38.671 3.781 44.49 8.706 3.843 25.834.013 73.805-77.317 9.736-15.69 19.694-23.681 29.59-23.743 19.425-.135 38.198 29.231 50.636 48.652 1.866 2.934 3.634 5.709 5.292 8.176 9.785 14.732 20.713 22.037 32.476 21.717 14.255-.393 25.366-12.104 30.867-19.274l-5.771-9.318c-2.897 4.334-13.076 18.157-25.391 18.477-8.042.196-16.035-5.586-23.758-17.2-1.597-2.406-3.34-5.131-5.194-8.029-14.439-22.576-34.22-53.5-59.23-53.329-11.898.086-23.194 7.44-33.655 21.865l-6.114 9.33zM48.792 169.245h-10.24c-.847 5.61-1.277 11.012-1.277 16.18 0 9.723 1.498 18.611 4.494 26.566 4.605 12.277 12.708 21.852 23.427 27.696 11.149 6.065 24.335 7.808 38.124 5.021 13.248-2.664 26.165-9.391 37.498-19.495l-5.427-8.753c-20.284 18.844-46.486 24.614-65.357 14.339-18.332-9.981-26.006-32.349-21.242-61.554zm153.22 37.332c21.585-10.14 46.191-39.984 73.326-74.714 8.926-11.43 16.391-17.016 22.187-16.598 7.882.577 14.942 12.964 21.769 24.958 5.01 8.802 10.179 17.875 16.625 24.541l5.537-8.938c-4.837-5.647-9.172-13.221-13.371-20.612-8.521-14.953-16.563-29.071-29.824-30.04-9.626-.7-19.448 5.794-30.904 20.464-22.432 28.715-56.345 72.113-78.335 74.421-4.211.441-7.846-.676-11.112-3.413-21.18-17.801-.491-78.864 11.124-105.418l-6.483-10.472c-2.406 5.389-12.401 28.432-18.343 51.426-3.721 14.339-5.562 26.799-5.562 37.382 0 16.021 4.26 27.683 12.757 34.828 4.457 3.744 9.073 5.414 13.899 5.696 5.414.32 11.713-1.166 16.71-3.511zM-25 150.277c5.648 7.685 13.653 11.565 23.918 11.565 23.218 0 38.063-29.022 49.997-52.347 3.549-6.936 6.9-13.504 9.958-18.218 3.524-5.439 5.34-6.347 5.758-6.495 0 0 0 .013.013.013.22.528.847 2.75-.283 9.919-.945 6.028-2.824 13.786-4.8 21.999-4.065 16.77-8.866 36.621-8.853 54.017 0 17.74 4.985 32.926 20.848 39.702 13.641 5.831 28.326 3.118 43.637-8.078 10.829-7.918 22.101-20.219 33.507-36.596l-5.82-9.391c-17.557 26.05-43.477 54.961-67.346 44.76-10.228-4.371-14.918-14.339-14.721-31.416.172-15.861 4.64-34.325 8.582-50.628 5.538-22.92 8.89-36.768 1.474-42.293-2.591-1.915-5.513-2.565-8.46-1.878-8.153 1.89-14.17 13.676-22.506 29.979-10.67 20.87-23.955 46.835-40.985 46.835-10.535 0-16.895-5.463-20.64-17.703-1.817-5.929-2.774-12.878-3.278-20.219v36.473zm264.657-66.649c-4.223 6.372-8.373 13.148-12.585 20.036-4.936 8.078-10.019 16.401-15.397 24.332l5.82 9.391c6.483-9.244 12.45-19.004 18.221-28.445 3.303-5.401 6.557-10.741 9.835-15.824l6.176-9.232c9.724-13.823 19.805-24.504 31.518-27.315 3.119-.749 6.36-.933 9.712-.552l5.759-9.306c-6.139-1.375-12.058-1.363-17.841.024-13.53 3.241-24.495 13.775-34.649 27.488l-6.569 9.403z" fill="#fff" fill-opacity=".05"/></g><defs><radialGradient id="paint0_radial_4_63" cx="0" cy="0" r="1" gradientUnits="userSpaceOnUse" gradientTransform="matrix(0 240 -320 0 160 0)"><stop stop-color="#fff" stop-opacity=".5"/><stop offset=".504" stop-color="#151515" stop-opacity=".63"/><stop offset="1" stop-color="#fff" stop-opacity=".5"/></radialGradient><radialGradient id="paint1_radial_4_63" cx="0" cy="0" r="1" gradientUnits="userSpaceOnUse" gradientTransform="matrix(0 240 -320 0 160 0)"><stop stop-color="#fff" stop-opacity=".5"/><stop offset=".504" stop-color="#151515" stop-opacity=".63"/><stop offset="1" stop-color="#fff" stop-opacity=".5"/></radialGradient></defs></svg>