<svg width="768" height="314" fill="none" xmlns="http://www.w3.org/2000/svg"><path fill="#151515" d="M-157 0H915v314H-157z"/><path fill="url(#paint0_radial_4_64)" fill-opacity=".2" d="M-157 0H915v314H-157z"/><mask id="a" style="mask-type:alpha" maskUnits="userSpaceOnUse" x="0" y="0" width="768" height="314"><path fill="#151515" d="M0 0h768v314H0z"/></mask><g mask="url(#a)"><path d="M514.739 117.821c-104.242 166.465-131.748 156.862-132.02 156.753-4.28-1.904-9.132-25.273 4.143-71.929 2.672-9.358 5.37-18.69 8.069-27.939C416.467 100.573 435.058 36.56 417.612 5.71c-4.962-8.787-12.458-14.554-22.245-17.166-39.063-10.42-67.441 47.01-103.369 119.701-5.561 11.29-11.368 23.042-17.419 34.931h-23.88c-26.415 51.716-41.217 71.711-48.495 79.383 1.69-14.31 11.939-43.99 19.817-66.761 17.42-50.383 39.118-113.062 39.118-167.281 0-51.39-25.051-91.353-65.342-104.276-22.026-7.073-46.287-5.277-70.139 5.224-17.474 7.671-34.375 20.05-49.777 36.29l12.267 19.779c31.24-35.067 68.613-50.275 100.753-39.964 30.694 9.875 49.776 41.65 49.776 82.947 0 50.465-21.017 111.185-37.891 159.963-18.237 52.723-28.296 81.778-15.211 95.761 3.816 4.081 9.187 5.931 14.748 5.114 4.143-.598 9.05-2.693 15.538-8.868-20.554 24.484-44.652 41.65-62.862 34.658-14.093-5.413-20.363-26.034-15.974-52.505 3.353-20.294 12.349-48.506 21.862-78.376 12.322-38.685 26.279-82.54 30.695-118.34 5.616-45.27-5.343-72.91-32.548-82.186C102.896-74.734 58.108 4.595 18.581 74.593c-21.127 37.433-47.46 84.062-63.189 87.163-1.145.218-2.535.3-4.77-1.469-7.388-5.794-11.968-21.682-11.967-41.487v-.952h-22.463v.925c0 16.323 2.726 45.16 20.527 59.143 6.897 5.441 14.857 7.454 23.035 5.849 24.616-4.87 45.85-40.481 78.4-98.182 33.473-59.279 75.127-133.058 111.6-120.625 5.861 1.986 23.744 8.08 17.529 58.218-4.171 33.76-17.801 76.526-29.823 114.287-9.759 30.659-18.973 59.632-22.626 81.505-6.297 38.005 5.234 67.549 30.095 77.098 19.519 7.481 39.091-.435 52.094-8.406 19.028-11.644 37.592-31.422 55.147-58.735 22.708-35.339 42.525-75.412 59.972-110.751C339.757 62.296 368.326 4.54 389.561 10.199c3.898 1.034 6.515 3.047 8.478 6.53 12.812 22.633-6.27 88.251-24.698 151.72-2.698 9.304-5.424 18.662-8.096 28.048-7.196 25.354-20.826 85.695 8.396 98.59 19.327 8.515 57.355.027 163.86-171.336 21.617-34.767 43.725-52.477 65.696-52.614 43.125-.299 84.806 64.775 112.42 107.813 4.143 6.502 8.069 12.65 11.749 18.118 21.726 32.646 45.988 48.832 72.103 48.125 31.648-.87 56.319-26.824 68.531-42.711l-12.812-20.649c-6.434 9.604-29.032 40.236-56.374 40.943-17.855.436-35.601-12.378-52.748-38.113-3.543-5.332-7.414-11.372-11.531-17.792-32.057-50.03-75.973-118.558-131.502-118.177-26.414.19-51.494 16.486-74.719 48.451l-13.575 20.676zM63.832 263.91H41.097c-1.88 12.432-2.835 24.403-2.835 35.856 0 21.546 3.326 41.242 9.977 58.871 10.223 27.204 28.215 48.424 52.012 61.373 24.752 13.44 54.03 17.303 84.642 11.127 29.414-5.903 58.091-20.811 83.252-43.201l-12.049-19.397c-45.033 41.759-103.206 54.546-145.104 31.775-40.7-22.117-57.737-71.684-47.16-136.404zm340.177 82.729c47.923-22.471 102.552-88.605 162.796-165.567 19.818-25.328 36.392-37.706 49.259-36.781 17.501 1.279 33.175 28.728 48.332 55.307 11.122 19.506 22.598 39.61 36.91 54.382l12.294-19.805c-10.741-12.514-20.363-29.299-29.686-45.676-18.919-33.136-36.774-64.421-66.215-66.57-21.371-1.551-43.179 12.84-68.613 45.35-49.804 63.632-125.096 159.8-173.918 164.915-9.35.979-17.419-1.497-24.67-7.563-47.024-39.447-1.091-174.763 24.697-233.607l-14.393-23.206c-5.343 11.943-27.533 63.007-40.727 113.961-8.259 31.775-12.348 59.388-12.348 82.838 0 35.502 9.459 61.347 28.323 77.18 9.895 8.297 20.145 11.997 30.858 12.623 12.022.707 26.006-2.584 37.101-7.781zM-100 221.879c12.54 17.03 30.313 25.626 53.102 25.626 51.549 0 84.506-64.311 111.003-116 7.878-15.371 15.32-29.925 22.108-40.372 7.823-12.052 11.858-14.065 12.785-14.391 0 0 0 .027.027.027.49 1.17 1.881 6.094-.627 21.981-2.1 13.358-6.27 30.551-10.659 48.751-9.023 37.162-19.682 81.152-19.654 119.701 0 39.31 11.067 72.963 46.287 87.98 30.286 12.922 62.889 6.91 96.882-17.901 24.043-17.547 49.068-44.806 74.392-81.097l-12.921-20.812c-38.982 57.729-96.527 121.796-149.521 99.189-22.707-9.685-33.12-31.776-32.684-69.617.381-35.149 10.304-76.065 19.054-112.192 12.295-50.792 19.736-81.479 3.271-93.72-5.751-4.244-12.239-5.686-18.782-4.163-18.1 4.19-31.458 30.306-49.967 66.434-23.689 46.248-53.184 103.786-90.994 103.786-23.389 0-37.51-12.106-45.824-39.229-4.034-13.14-6.16-28.538-7.278-44.806v80.825zM487.588 74.184c-9.378 14.12-18.592 29.137-27.942 44.399-10.958 17.9-22.244 36.345-34.184 53.919l12.922 20.812c14.393-20.485 27.641-42.113 40.453-63.033 7.333-11.971 14.557-23.805 21.835-35.067l13.712-20.458c21.59-30.633 43.97-54.3 69.976-60.53 6.924-1.66 14.121-2.068 21.563-1.225L618.708-7.62c-13.63-3.047-26.769-3.02-39.609.054-30.04 7.182-54.383 30.524-76.927 60.912l-14.584 20.839z" fill="#fff" fill-opacity=".05"/></g><defs><radialGradient id="paint0_radial_4_64" cx="0" cy="0" r="1" gradientUnits="userSpaceOnUse" gradientTransform="matrix(0 314 -1072 0 379 0)"><stop stop-color="#fff" stop-opacity=".5"/><stop offset=".504" stop-color="#151515" stop-opacity=".63"/><stop offset="1" stop-color="#fff" stop-opacity=".5"/></radialGradient></defs></svg>