<svg width="100" height="100" fill="none" xmlns="http://www.w3.org/2000/svg"><circle opacity=".05" cx="50" cy="50" r="50" fill="#45222D"/><path d="M84.726 61.172h-4.219v-8.257c0-.693-.406-1.32-1.038-1.604l-10.735-4.81a1.758 1.758 0 00-1.962.362l-2.241 2.241-12.86-1.225a1.76 1.76 0 00-1.684.862l-2.497 4.262-2.056-2.056c-2.416-2.417-6.36-2.428-8.79-.024l-3.59 3.551-3.51-3.51a6.24 6.24 0 00-8.814 0L10.522 61.172H5.273A5.28 5.28 0 000 66.445v18.282A5.28 5.28 0 005.273 90h79.453A5.28 5.28 0 0090 84.727V66.445a5.28 5.28 0 00-5.274-5.273zM68.401 50.205l8.59 3.849v7.118H57.436L68.4 50.205zm-15.948 1.28l8.853.843-7.245 7.245-4.002-4.001 2.394-4.087zm-13.336 1.937a2.722 2.722 0 013.831.01l7.74 7.74H39.75l-4.21-4.212 3.578-3.538zm-15.901.028a2.72 2.72 0 013.842 0l7.721 7.722H15.494l7.721-7.722zm63.268 15.984h-20.13a1.758 1.758 0 000 3.515h20.13v11.778a1.76 1.76 0 01-1.758 1.757H5.273a1.76 1.76 0 01-1.757-1.757v-4.22H22.8a1.758 1.758 0 000-3.515H3.516V66.445c0-.969.788-1.757 1.757-1.757h79.453c.97 0 1.758.788 1.758 1.757v2.989zm1.758-59.942H51.54c-3.369 0-6.577-1.367-9.035-3.848C38.956 2.057 33.706 0 28.102 0 17.828 0 9.47 6.94 9.47 15.469c0 6.8 5.314 12.59 12.675 14.658v5.908a1.758 1.758 0 003.516 0v-5.23a22.505 22.505 0 003.705.096v8.122a1.758 1.758 0 003.516 0v-8.599c3.74-.818 7.108-2.59 9.623-5.13 2.458-2.482 5.666-3.849 9.035-3.849h36.702c.97 0 1.758-.787 1.758-1.758V11.25c0-.97-.787-1.758-1.758-1.758zM29.366 27.375a19.16 19.16 0 01-1.264.047 19.07 19.07 0 01-2.441-.158v-2.517a14.08 14.08 0 003.705.156v2.473zm1.758-12.31c-.97 0-1.758.787-1.758 1.758v4.549c-.412.048-.834.073-1.263.073-4.459 0-8.086-2.68-8.086-5.976s3.627-5.977 8.086-5.977c4.458 0 8.085 2.681 8.085 5.977 0 1.974-1.303 3.728-3.306 4.817v-3.463a1.76 1.76 0 00-1.758-1.758zm55.36 2.865H51.54c-4.314 0-8.41 1.736-11.533 4.89-1.871 1.89-4.348 3.256-7.125 3.988v-2.693c4.019-1.493 6.822-4.806 6.822-8.646 0-5.234-5.204-9.492-11.601-9.492-6.398 0-11.602 4.258-11.602 9.492 0 3.453 2.266 6.48 5.644 8.141v2.843c-5.381-1.832-9.16-6.065-9.16-10.984 0-6.591 6.782-11.953 15.117-11.953 4.67 0 9.01 1.677 11.905 4.601 3.123 3.154 7.219 4.89 11.533 4.89h34.944v4.923zM10.209 45.688l-1.391-1.746a3.706 3.706 0 01-.004-4.634l1.409-1.775a1.757 1.757 0 10-2.754-2.186L6.06 37.123a7.206 7.206 0 00.008 9.01l1.39 1.745a3.706 3.706 0 01.004 4.634 1.758 1.758 0 102.754 2.186 7.206 7.206 0 00-.007-9.01zm68.725-8.585l-1.391-1.746a3.706 3.706 0 01-.004-4.634l1.41-1.775a1.758 1.758 0 10-2.755-2.185l-1.409 1.775a7.206 7.206 0 00.008 9.01l1.39 1.746a3.706 3.706 0 01.004 4.633 1.757 1.757 0 102.754 2.186 7.206 7.206 0 00-.007-9.01zm-46.567 6.654a1.771 1.771 0 00-1.243-.515 1.77 1.77 0 00-1.243.515A1.77 1.77 0 0029.366 45c0 .462.188.916.515 1.243.327.327.78.515 1.243.515.462 0 .915-.188 1.243-.515.326-.327.515-.78.515-1.243a1.77 1.77 0 00-.515-1.243z" fill="#45222D"/><path d="M30.02 77.507a1.774 1.774 0 00-1.243-.515c-.464 0-.918.188-1.245.515a1.77 1.77 0 00-.513 1.243c0 .462.187.916.514 1.243.328.327.78.515 1.244.515.46 0 .914-.188 1.243-.515a1.77 1.77 0 00.515-1.243 1.77 1.77 0 00-.515-1.243z" fill="#45222D"/></svg>