<svg width="187" height="70" fill="none" xmlns="http://www.w3.org/2000/svg"><path d="M53.657 49.992h14.317v19.475h-3.606V53.492h-7.106v15.975h-3.605V49.992zm-21.579 7.117v1.593c.874.131 1.713.198 2.516.198 1.512 0 2.895-.233 4.132-.697 1.91-.717 3.399-1.977 4.307-3.644.944-1.732 1.214-3.783.782-5.929-.415-2.06-1.462-4.067-3.034-5.829l-1.36.843c2.93 3.154 3.828 7.229 2.23 10.162-1.553 2.851-5.03 4.045-9.573 3.303zM12.753 44.865c3.54 0 7.801 1.47 11.225 2.653 3.701 1.278 5.74 1.982 6.719 1.065a1.16 1.16 0 00.36-1.031c-.124-.843-1.118-2.13-7.45-5.292v1.763c3.627 1.85 5.03 2.887 5.57 3.396-1.005-.117-3.087-.836-4.685-1.388-3.535-1.221-7.935-2.74-11.74-2.74-3.605 0-6.41 1.754-7.318 4.577-.497 1.543-.37 3.24.366 4.91.54 1.226 1.407 2.409 2.547 3.489l1.389-.86C7.274 53.217 6.208 50.6 6.93 48.35c.693-2.15 2.923-3.486 5.822-3.486zM39.87 32.984c-1.333-3.472-6.162-7.464-11.828-11.889-1.777-1.389-2.646-2.55-2.58-3.451.09-1.224 2.016-2.322 3.88-3.383 1.37-.78 2.78-1.585 3.817-2.586l-1.39-.861c-.877.752-2.057 1.425-3.205 2.078-2.325 1.325-4.521 2.575-4.671 4.637-.11 1.498.901 3.026 3.181 4.806 4.466 3.489 11.215 8.76 11.573 12.181a2.205 2.205 0 01-.53 1.727c-2.767 3.293-12.263.077-16.393-1.73l-1.628 1.01c.836.373 4.422 1.927 7.997 2.852 2.229.577 4.168.864 5.812.864 2.493 0 4.306-.662 5.417-1.983.549-.654.85-1.392.905-2.199l5.411 3.36V67.88H30.79c1.273-.883 1.918-2.156 1.918-3.805 0-3.61-4.514-5.919-8.142-7.773-1.08-.553-2.1-1.074-2.832-1.55-.847-.548-.988-.83-1.01-.894l.001-.002c.08-.035.428-.131 1.544.043.936.146 2.142.438 3.42.747 2.609.63 5.695 1.377 8.4 1.377 2.758 0 5.121-.776 6.175-3.243.907-2.12.484-4.404-1.257-6.785-1.232-1.684-3.145-3.435-5.69-5.21l-1.463.906c4.053 2.728 8.55 6.76 6.963 10.47-.68 1.592-2.232 2.32-4.886 2.29-2.466-.027-5.34-.722-7.873-1.335-3.566-.862-5.718-1.383-6.577-.228-.299.402-.4.856-.294 1.315.296 1.266 2.127 2.203 4.663 3.5 3.245 1.66 7.284 3.724 7.284 6.372 0 1.638-.85 2.627-2.754 3.21-1.798.549-4.194.595-6.494.595H1.575V38.417l18.968-11.775c.99.657 2.045 1.302 3.116 1.956 1.256.768 2.55 1.559 3.784 2.396l1.46-.905c-1.438-1.009-2.956-1.936-4.424-2.834-.84-.513-1.67-1.02-2.46-1.529l1.587-.985c11.681 7.3 11.007 9.227 10.998 9.246-.132.299-1.771.64-5.047-.29-.656-.187-1.311-.377-1.96-.565-5.203-1.508-9.695-2.81-11.859-1.589a2.455 2.455 0 00-1.206 1.557c-.73 2.736 3.3 4.724 8.402 7.24 2.443 1.205 5.212 2.57 7.619 4.114 2.496 1.602 4.73 3.961 4.092 5.62-.38.989-1.827 1.428-3.684 1.12-1.423-.235-3.404-.865-5.5-1.53-2.715-.864-5.792-1.842-8.305-2.152-3.177-.392-5.117.376-5.768 2.282-1.296 3.791 4.271 6.928 9.183 9.695 2.628 1.48 5.9 3.324 6.117 4.426.016.079.022.177-.102.334-.408.518-1.521.838-2.913.838h-.067v1.573h.066c1.145 0 3.169-.19 4.15-1.437.381-.484.523-1.041.41-1.614-.342-1.725-2.84-3.21-6.888-5.491-4.162-2.344-9.34-5.262-8.468-7.816.141-.41.57-1.662 4.087-1.228 2.368.293 5.371 1.247 8.02 2.089 2.153.684 4.186 1.33 5.72 1.584 2.668.442 4.74-.365 5.41-2.107.526-1.366-.03-2.738-.588-3.649-.82-1.332-2.206-2.631-4.123-3.861-2.48-1.592-5.292-2.979-7.772-4.201-3.92-1.934-7.975-3.934-7.577-5.422a.902.902 0 01.459-.594c1.587-.896 6.192.439 10.646 1.73.652.19 1.31.38 1.97.567 1.778.505 6.012 1.46 6.916-.587.599-1.355.003-4.018-12.023-11.477-2.44-1.513-3.683-3.06-3.693-4.6-.02-3.02 4.546-5.941 7.568-7.873.455-.291.885-.567 1.271-.823 2.29-1.522 3.426-3.221 3.376-5.05-.06-2.216-1.881-3.945-2.997-4.8l-1.45.898c.675.449 2.825 2.031 2.874 3.947.032 1.25-.868 2.493-2.674 3.695-.374.248-.798.52-1.249.807-3.51 2.246-8.32 5.32-8.293 9.21.013 1.85 1.156 3.606 3.4 5.233l-1.571.975c-2.15-1.51-3.81-3.078-4.247-4.9a4.343 4.343 0 01-.087-1.51l-1.447-.896a6.047 6.047 0 00.004 2.774c.509 2.123 2.17 3.839 4.33 5.43L0 37.54v31.912l47.212.001V37.541l-7.341-4.557zm13.786 5.47h4.13v1.162h-2.888v1.575c.272-.04.696-.06.95-.06 1.474 0 2.372.827 2.372 2.13 0 1.464-.99 2.303-2.726 2.303-.818 0-1.424-.04-1.838-.04v-7.07zm76.076 0h4.129v1.162h-2.887v1.575c.273-.04.696-.06.949-.06 1.475 0 2.373.827 2.373 2.13 0 1.464-.99 2.303-2.726 2.303-.818 0-1.424-.04-1.838-.04v-7.07zm1.242 3.898v2.01c.282.02.525.04.787.04.919 0 1.303-.424 1.303-1.05 0-.606-.374-1.06-1.243-1.06-.231 0-.534.02-.847.06zm-5.459 1.525c-.485 1.08-1.04 1.646-1.918 1.646-.364 0-.778-.13-.97-.283l.435-1.05a.811.811 0 00.524.172c.334 0 .556-.192.697-.495l.102-.242-3.121-5.17h1.404l2.312 3.948 1.686-3.948h1.252l-2.403 5.422zm-7.296-4.261h-2.059l-.142 1.333c-.414 4.11-1.333 4.776-2.727 4.574l.031-1.232c.545.07 1.262-.161 1.575-4.422l.101-1.414h4.453v7.068h-1.232v-5.907zm-12.096-1.161h1.241v3.352l2.787-3.352h1.494l-2.907 3.291 3.089 3.777h-1.574l-2.889-3.646v3.646h-1.241v-7.068zm-12.157 7.068v-7.068h1.242v5.028l3.706-5.028h1.09v7.068h-1.242v-5.019l-3.706 5.019h-1.09zm2.282-8.785c.08.394.353.586.858.586.454 0 .767-.151.808-.586h1.16c-.03.868-.857 1.444-1.968 1.444-1.212 0-1.949-.586-2.02-1.444h1.162zm-10.28 4.14c.313-.04.586-.05.788-.05 1.747 0 2.586.898 2.586 2.282 0 1.494-1.05 2.433-2.858 2.433-.667 0-1.343-.02-1.758-.02v-7.068h1.243v2.423zm0 1.162v2.312c.223.01.425.03.667.03.909 0 1.393-.414 1.393-1.242 0-.757-.504-1.151-1.373-1.151-.192 0-.404.02-.686.05zm4.292-3.585h1.232v7.068H90.26v-7.068zm-9.234 4.049h-3.231v3.019h-1.242v-7.068h1.242v2.888h3.231v-2.888h1.233v7.068h-1.233v-3.02zm-8.173 0h-3.231v3.019H68.38v-7.068h1.242v2.888h3.231v-2.888h1.232v7.068h-1.232v-3.02zM62.5 38.434h1.09l2.99 7.09h-1.324l-.737-1.808h-3.018l-.737 1.807H59.51l2.989-7.089zm-.525 4.12h2.07l-1.03-2.514-1.04 2.514zm-7.076-.202v2.01c.282.02.525.04.788.04.918 0 1.302-.424 1.302-1.05 0-.606-.374-1.06-1.242-1.06-.232 0-.535.02-.848.06zM182.216 55.63c-.974-1.237-2.58-2.42-4.896-2.42-3.895 0-6.605 3.157-6.605 6.578 0 3.659 2.895 6.712 6.632 6.712 1.737 0 3.474-.685 4.685-2.264h4.184c-1.605 3.421-4.737 5.764-8.974 5.764-6.817 0-10.133-5.738-10.133-10.212 0-4.342 3.29-10.08 10.185-10.08 4.028 0 7.396 2.186 9.027 5.922h-4.105zm-24.584 13.896h-3.948l2.29-4.948L148.5 50.05h4.369l5.132 10.37 4.5-10.37h3.948l-8.817 19.475zM138.385 50.05h2.895l8.105 19.475h-3.974l-2-5.027h-7.158l-2 5.027h-3.974l8.106-19.475zM142.043 61l-2.211-5.684-2.21 5.684h4.421zm-24.882-1.21l-6.711-9.738h4.212l4.605 6.764 4.632-6.764h4.211l-6.738 9.737 6.738 9.738h-4.211l-4.632-6.737-4.605 6.737h-4.212l6.711-9.737zm-21.73-9.738h5.449c6.237 0 6.974 4.238 6.974 6.08 0 2.447-1.316 6.027-6.974 6.027h-1.843v7.368h-3.605V50.05zm3.606 8.606h2.133c.946 0 3.078-.158 3.078-2.553s-2.132-2.552-3.078-2.552h-2.133v5.105zM80.04 50.051h2.895l8.106 19.475h-3.974l-2-5.027H77.91l-2.001 5.027h-3.973L80.04 50.05zM83.699 61l-2.212-5.684L79.277 61h4.422z" fill="#fff"/></svg>