<svg width="21" height="20" fill="none" xmlns="http://www.w3.org/2000/svg"><path d="M1.236 7.146c1.208 4.8 7.806 11.402 12.605 12.605a8.127 8.127 0 001.982.249c1.27 0 2.52-.313 3.642-.91a2.829 2.829 0 00.695-4.5l-1.897-1.897a2.827 2.827 0 00-3.13-.592c-.498.215-.951.52-1.338.898-.162.16-.46.186-.888.07a9.075 9.075 0 01-4.99-4.989c-.114-.428-.09-.727.071-.888.38-.387.684-.841.899-1.339a2.83 2.83 0 00-.592-3.13L6.398.829A2.786 2.786 0 003.984.034a2.818 2.818 0 00-2.09 1.488 7.8 7.8 0 00-.658 5.624zm2.27-4.78a1.014 1.014 0 011.607-.252l1.895 1.895a1 1 0 01.218 1.103 2.636 2.636 0 01-.523.8 2.561 2.561 0 00-.537 2.636c.657 2.454 3.823 5.617 6.273 6.273a2.565 2.565 0 002.643-.546c.231-.221.5-.399.795-.524a1 1 0 011.103.218l1.896 1.895a.988.988 0 01.282.857 1.01 1.01 0 01-.537.75 5.925 5.925 0 01-4.333.506C10.157 16.95 4.039 10.831 2.999 6.702a5.937 5.937 0 01.506-4.336z" fill="#000"/></svg>