<svg width="20" height="20" fill="none" xmlns="http://www.w3.org/2000/svg"><path d="M.252 7.146c1.209 4.8 7.806 11.402 12.606 12.605a8.127 8.127 0 001.981.249 7.75 7.75 0 003.642-.91 2.829 2.829 0 00.695-4.5l-1.896-1.897a2.828 2.828 0 00-3.132-.592c-.496.215-.95.52-1.337.898-.162.16-.46.186-.888.07a9.075 9.075 0 01-4.99-4.989c-.114-.428-.09-.727.072-.888a4.43 4.43 0 00.898-1.339 2.83 2.83 0 00-.592-3.13L5.414.829A2.787 2.787 0 003.001.034 2.818 2.818 0 00.91 1.522a7.8 7.8 0 00-.658 5.624zm2.27-4.78a1.014 1.014 0 011.607-.252l1.895 1.895a1 1 0 01.218 1.103 2.636 2.636 0 01-.523.8 2.561 2.561 0 00-.536 2.636c.656 2.454 3.823 5.617 6.273 6.273a2.565 2.565 0 002.643-.546c.23-.221.5-.399.794-.524a1 1 0 011.104.218l1.895 1.895a.99.99 0 01.282.857 1.013 1.013 0 01-.537.75 5.925 5.925 0 01-4.333.506C9.173 16.95 3.055 10.831 2.015 6.702a5.937 5.937 0 01.507-4.336z" fill="#fff"/></svg>