<svg width="21" height="20" fill="none" xmlns="http://www.w3.org/2000/svg"><path fill-rule="evenodd" clip-rule="evenodd" d="M16.818 14.121c-.24.682-1.199 1.247-1.963 1.412-.523.11-1.205.199-3.503-.754-2.58-1.069-6.165-4.878-6.165-7.413 0-1.29.744-2.793 2.045-2.793.626 0 .764.012.97.507.241.582.83 2.016.9 2.163.288.603-.295.956-.718 1.482-.135.158-.288.329-.117.623.17.288.758 1.246 1.622 2.015 1.116.995 2.021 1.312 2.345 1.447.241.1.53.077.705-.111.223-.241.5-.641.782-1.035.2-.282.452-.318.717-.218.18.062 2.454 1.119 2.55 1.288.071.123.071.705-.17 1.387zM11 0h-.005C5.481 0 .997 4.485.997 10c0 2.187.705 4.215 1.904 5.86l-1.246 3.717 3.843-1.228A9.922 9.922 0 0011 20c5.513 0 9.998-4.485 9.998-10S16.512 0 11 0z" fill="#fff"/></svg>