<svg width="50" height="50" fill="none" xmlns="http://www.w3.org/2000/svg"><path fill-rule="evenodd" clip-rule="evenodd" d="M23.542 5.406c-.036-.223-.23-.887-1.805-1.98L24.115 0c2.027 1.407 3.253 2.932 3.544 4.743.259 1.606-.325 3.03-.675 3.884l-.053.128c-.424 1.041-.528 1.431-.473 1.776.036.223.23.887 1.805 1.98l-2.377 3.426c-2.028-1.407-3.253-2.932-3.545-4.742-.259-1.606.325-3.03.676-3.885l.052-.127c.424-1.042.529-1.432.473-1.777zM8.96 9.589c-.039-.227-.243-.895-1.827-1.99l2.372-3.43c2.03 1.403 3.26 2.922 3.566 4.724.273 1.61-.305 3.037-.651 3.894l-.049.12c-.419 1.041-.525 1.432-.47 1.781.036.225.227.886 1.784 1.976l-2.392 3.416c-2.013-1.41-3.224-2.934-3.51-4.738-.253-1.594.32-3.01.665-3.86.02-.045.037-.09.054-.132.416-1.034.515-1.42.458-1.76zm29.167-.012c-.035-.224-.23-.887-1.805-1.98L38.7 4.17c2.027 1.407 3.252 2.932 3.545 4.742.259 1.604-.323 3.027-.672 3.882l-.053.128c-.422 1.041-.525 1.43-.468 1.774.036.223.234.889 1.816 1.984l-2.373 3.43c-2.031-1.406-3.262-2.93-3.559-4.74-.264-1.607.32-3.034.669-3.89l.05-.125c.423-1.042.528-1.433.472-1.778zM25.01 22.57l.002-.005a.023.023 0 00-.003-.008h-.001l-.002-.002a.028.028 0 00-.005-.001h-.002l-.003.001a.015.015 0 00-.003.002l-.001.003a.03.03 0 00-.002.005l.002.005.001.002.003.002.005.001h.002l.003-.001a.012.012 0 00.003-.002l.001-.002zm-4.168-.005a4.16 4.16 0 116.244 3.6v.675a18.767 18.767 0 0116.681 18.64H50v4.17h-6.233v.109H6.233v-.11H0v-4.17h6.234A18.766 18.766 0 0122.915 26.84v-.676a4.158 4.158 0 01-2.074-3.6zM39.596 45.48H10.404a14.596 14.596 0 0129.192 0z" fill="#fff"/></svg>