<svg width="50" height="50" fill="none" xmlns="http://www.w3.org/2000/svg"><path d="M44.71 17.438a5.297 5.297 0 00-5.291 5.291v15.712h-6.99l.988-9.743.174-1.606h-.01l.457-4.514h2.656v-8.393H0v8.393h2.656l.457 4.514h-.01l.174 1.61 1.506 14.862H26.77C27.44 47.22 30.648 50 34.493 50c4.332 0 7.855-3.524 7.855-7.855V22.729a2.364 2.364 0 012.361-2.36 2.363 2.363 0 012.361 2.36v1.465H50V22.73a5.297 5.297 0 00-5.29-5.29zm-41.78 2.21v-2.533h30.834v2.533H2.93zm28.163 2.93l-.457 4.514h-3.942l.23-4.514h4.17zm-7.103 0l-.23 4.514h-3.948v-4.514h4.178zm-7.108 0v4.514h-3.949l-.229-4.514h4.178zm-11.282 0h4.17l.23 4.514H6.058L5.6 22.578zm.766 7.443h23.962l-.341 3.17H6.706l-.341-3.17zM7.43 40.635l-.458-4.515h3.484l.23 4.515H7.43zm9.451 0H13.62l-.23-4.515h3.492v4.515zm6.192 0h-3.262V36.12h3.491l-.229 4.515zm3.564-2.194v2.194h-.63l.229-4.515h3.483l-.235 2.32h-2.846zm7.855 8.63a4.93 4.93 0 01-4.925-4.926v-.774h9.85v.774a4.93 4.93 0 01-4.925 4.925zM11.861 5.176c0-.813.238-1.135.668-1.72.523-.709 1.24-1.68 1.24-3.456h-2.93c0 .812-.237 1.134-.668 1.719-.523.71-1.24 1.681-1.24 3.457 0 1.775.717 2.747 1.24 3.457.43.584.668.906.668 1.719h2.93c0-1.776-.717-2.748-1.24-3.457-.43-.585-.668-.907-.668-1.72zm6.997 0c0-.813.238-1.135.668-1.72.523-.709 1.24-1.68 1.24-3.456h-2.93c0 .812-.238 1.134-.668 1.719-.523.71-1.24 1.681-1.24 3.457 0 1.775.717 2.747 1.24 3.457.43.584.668.906.668 1.719h2.93c0-1.776-.717-2.748-1.24-3.457-.43-.585-.668-.907-.668-1.72zm6.997 0c0-.813.237-1.135.668-1.72.523-.709 1.24-1.68 1.24-3.456h-2.93c0 .812-.238 1.134-.669 1.719-.523.71-1.239 1.681-1.239 3.457 0 1.775.716 2.747 1.24 3.457.43.584.667.906.667 1.719h2.93c0-1.776-.716-2.748-1.24-3.457-.43-.585-.667-.907-.667-1.72z" fill="#fff"/></svg>