<svg width="50" height="39" fill="none" xmlns="http://www.w3.org/2000/svg"><path fill-rule="evenodd" clip-rule="evenodd" d="M20 5a5 5 0 117.58 4.284l5.596 8.792 8.598-7.034a5 5 0 114.674.967L42.2 37.496a1.667 1.667 0 01-1.644 1.393H9.445c-.815 0-1.51-.59-1.644-1.393L3.553 12.01A5.002 5.002 0 015 2.222a5 5 0 013.227 8.82l8.597 7.034 5.596-8.792A4.997 4.997 0 0120 5zm5 6.438L18.628 21.45a1.667 1.667 0 01-2.461.396L7.372 14.65l3.484 20.906h28.288l3.484-20.906-8.795 7.196a1.667 1.667 0 01-2.461-.396L25 11.438zm0-8.105a1.667 1.667 0 100 3.334 1.667 1.667 0 000-3.334zM5 5.556a1.667 1.667 0 100 3.333 1.667 1.667 0 000-3.333zm40 0a1.667 1.667 0 100 3.333 1.667 1.667 0 000-3.333z" fill="#fff"/></svg>