<svg width="50" height="50" fill="none" xmlns="http://www.w3.org/2000/svg"><path d="M47.133 35.99c-.945-.441-2.12-.99-4.276-.99-2.156 0-3.332.549-4.277.99-.81.378-1.45.677-2.867.677-1.416 0-2.056-.3-2.866-.677-.945-.441-2.121-.99-4.277-.99-2.155 0-3.33.549-4.276.99-.81.378-1.45.677-2.866.677-1.416 0-2.056-.3-2.867-.677-.944-.441-2.12-.99-4.276-.99-2.155 0-3.33.549-4.276.99-.81.378-1.45.677-2.866.677-1.416 0-2.056-.3-2.867-.677C3.331 35.549 2.156 35 0 35v3.333c1.416 0 2.056.3 2.867.677.944.441 2.12.99 4.276.99 2.155 0 3.331-.549 4.276-.99.81-.378 1.45-.677 2.866-.677 1.416 0 2.056.3 2.867.677.945.441 2.12.99 4.276.99 2.155 0 3.331-.549 4.276-.99.81-.378 1.45-.677 2.866-.677 1.416 0 2.057.3 2.867.677.945.441 2.12.99 4.276.99 2.156 0 3.332-.549 4.277-.99.81-.378 1.45-.677 2.867-.677 1.416 0 2.056.3 2.867.677.945.441 2.12.99 4.276.99v-3.333c-1.416 0-2.056-.3-2.867-.677zM42.857 45c-2.156 0-3.332.549-4.277.99-.81.378-1.45.677-2.867.677-1.416 0-2.056-.3-2.866-.677-.945-.441-2.121-.99-4.277-.99-2.155 0-3.33.549-4.276.99-.81.378-1.45.677-2.866.677-1.416 0-2.056-.3-2.867-.677-.944-.441-2.12-.99-4.276-.99-2.155 0-3.33.549-4.276.99-.81.378-1.45.677-2.866.677-1.416 0-2.056-.3-2.867-.677C3.331 45.549 2.156 45 0 45v3.333c1.416 0 2.056.3 2.867.677.944.441 2.12.99 4.276.99 2.155 0 3.331-.549 4.276-.99.81-.378 1.45-.677 2.866-.677 1.416 0 2.056.3 2.867.677.945.441 2.12.99 4.276.99 2.155 0 3.331-.549 4.276-.99.81-.378 1.45-.677 2.866-.677 1.416 0 2.057.3 2.867.677.945.441 2.12.99 4.276.99 2.156 0 3.332-.549 4.277-.99.81-.378 1.45-.677 2.867-.677 1.416 0 2.056.3 2.867.677.945.441 2.12.99 4.276.99v-3.333c-1.416 0-2.056-.3-2.867-.677-.945-.441-2.12-.99-4.276-.99zm-18.69-18.333h15V32.5H42.5V10.404a4.98 4.98 0 01.88-2.833L48.585 0H44.54l-3.907 5.683a8.299 8.299 0 00-1.466 4.721V15h-15v-4.596c-.002-1.012.305-2 .88-2.833L30.252 0h-4.045L22.3 5.683a8.3 8.3 0 00-1.467 4.721V32.5h3.334v-5.833zm0-8.334h15v5h-15v-5z" fill="#fff"/></svg>