<svg width="491" height="796" fill="none" xmlns="http://www.w3.org/2000/svg"><path d="M210.731 290.388c147.504 92.181 138.995 116.504 138.898 116.745-1.687 3.785-22.394 8.075-63.736-3.664a4456.515 4456.515 0 01-24.756-7.135c-65.689-19.044-122.41-35.484-149.746-20.057-7.786 4.388-12.897 11.017-15.21 19.671-9.233 34.544 41.654 59.638 106.065 91.409 10.004 4.918 20.418 10.052 30.952 15.404v21.117c45.825 23.358 63.543 36.448 70.341 42.884-12.68-1.494-38.979-10.558-59.156-17.525-44.644-15.403-100.184-34.592-148.227-34.592-45.536 0-80.948 22.154-92.398 57.782-6.267 19.478-4.676 40.932 4.629 62.024 6.797 15.452 17.766 30.398 32.157 44.018l17.525-10.848c-31.073-27.625-44.548-60.674-35.412-89.095 8.75-27.143 36.906-44.018 73.5-44.018 44.715 0 98.52 18.586 141.742 33.508 46.717 16.126 72.462 25.022 84.852 13.451 3.616-3.375 5.255-8.124 4.532-13.042-.53-3.664-2.386-8.003-7.858-13.74 21.695 18.176 36.906 39.486 30.711 55.588-4.797 12.463-23.07 18.007-46.525 14.126-17.983-2.965-42.98-10.92-69.449-19.333-34.278-10.895-73.137-23.238-104.86-27.143-40.112-4.966-64.604 4.725-72.824 28.783-16.368 47.874 53.925 87.48 115.949 122.433 33.17 18.682 74.487 41.969 77.235 55.878.193 1.012.266 2.242-1.301 4.218-5.135 6.533-19.213 10.583-36.762 10.583h-.844v19.863h.82c14.464 0 40.016-2.411 52.406-18.152 4.821-6.098 6.605-13.137 5.183-20.369-4.315-21.768-35.87-40.546-86.998-69.329-52.527-29.602-117.902-66.435-106.886-98.689 1.76-5.183 7.16-20.996 51.587-15.5 29.915 3.688 67.81 15.741 101.269 26.372 27.167 8.63 52.84 16.777 72.221 20.007 33.676 5.569 59.855-4.628 68.316-26.612 6.629-17.26-.386-34.568-7.449-46.067-10.317-16.826-27.842-33.242-52.044-48.766-31.314-20.08-66.822-37.605-98.135-53.033-49.514-24.419-100.691-49.682-95.677-68.461.916-3.447 2.7-5.761 5.786-7.497 20.056-11.329 78.199 5.545 134.438 21.84 8.245 2.387 16.537 4.797 24.854 7.16 22.466 6.364 75.933 18.417 87.359-7.425 7.545-17.091.024-50.719-151.819-144.9-30.807-19.116-46.5-38.666-46.62-58.095-.266-38.136 57.396-74.994 95.531-99.413 5.762-3.664 11.21-7.135 16.055-10.39 28.927-19.212 43.27-40.666 42.643-63.76C322.824 10.615 299.827-11.2 285.749-22l-18.297 11.33c8.51 5.689 35.653 25.672 36.28 49.85.386 15.79-10.968 31.483-33.772 46.646-4.725 3.133-10.077 6.556-15.766 10.196-44.33 28.349-105.053 67.184-104.716 116.287.169 23.359 14.608 45.536 42.933 66.074l18.32 12.005zM340.18 689.124v20.104c11.016 1.663 21.623 2.507 31.772 2.507 19.091 0 36.544-2.941 52.165-8.823 24.106-9.04 42.908-24.949 54.383-45.994 11.908-21.888 15.331-47.778 9.859-74.849-5.231-26.01-18.441-51.369-38.28-73.619l-17.188 10.655c37.003 39.823 48.333 91.265 28.156 128.315-19.598 35.991-63.519 51.057-120.867 41.704zm73.306-300.818c-19.911-42.378-78.513-90.686-146.708-143.96-22.443-17.525-33.411-32.181-32.592-43.559 1.133-15.476 25.456-29.337 49.008-42.74 17.284-9.835 35.098-19.984 48.187-32.64l-17.549-10.871c-11.088 9.497-25.962 18.007-40.474 26.251-29.361 16.73-57.082 32.519-58.987 58.553-1.374 18.899 11.378 38.184 40.185 60.675 56.384 44.041 141.598 110.622 146.13 153.795.868 8.269-1.326 15.404-6.702 21.816-34.953 41.583-154.856.964-206.997-21.84l-20.562 12.728c10.582 4.725 55.829 24.347 100.979 36.014 28.156 7.304 52.623 10.92 73.403 10.92 31.458 0 54.359-8.364 68.388-25.046 7.352-8.75 10.631-17.814 11.185-27.288.627-10.63-2.29-22.997-6.894-32.808zM302.936 834c15.091-11.089 22.708-26.806 22.708-46.958 0-45.584-56.986-74.729-102.787-98.159-13.62-6.967-26.517-13.548-35.774-19.55-10.678-6.919-12.462-10.486-12.752-11.306 0 0 .025 0 .025-.024 1.036-.434 5.399-1.663 19.477.554 11.836 1.857 27.071 5.545 43.198 9.426 32.929 7.979 71.908 17.404 106.066 17.38 34.833 0 64.652-9.787 77.958-40.932 11.451-26.781 6.123-55.612-15.861-85.672-15.549-21.261-39.703-43.391-71.86-65.785L314.893 504.4c51.153 34.472 107.922 85.359 87.89 132.221-8.582 20.08-28.156 29.289-61.687 28.903-31.145-.338-67.4-9.112-99.413-16.85-45.005-10.872-72.197-17.453-83.044-2.893-3.761 5.087-5.039 10.824-3.689 16.609 3.713 16.007 26.854 27.818 58.867 44.186 40.98 20.948 91.964 47.031 91.964 80.466 0 20.683-10.727 33.169-34.761 40.522-11.643 3.567-25.287 5.448-39.702 6.436h71.618zm-130.87-519.602c12.51 8.292 25.817 16.44 39.34 24.708 15.862 9.691 32.206 19.671 47.778 30.229l18.441-11.426c-18.152-12.728-37.316-24.444-55.853-35.773-10.607-6.485-21.093-12.873-31.073-19.309l-18.127-12.125c-27.144-19.092-48.116-38.883-53.636-61.88-1.47-6.123-1.832-12.487-1.085-19.068l-18.272-11.306c-2.7 12.053-2.676 23.672.048 35.026 6.364 26.565 27.047 48.091 53.973 68.027l18.466 12.897z" fill="#F8F9FA"/></svg>